<svg viewBox="0 0 12 12" width="60px" height="60px" xmlns="http://www.w3.org/2000/svg"><path fill-rule="evenodd" d="M 2,0 9,0 9,1 11,1 11,10 0,10 0,1 2,1z M 6,6 6,7 5,7 5,6z" fill="#EC9A3C"/><path fill-rule="evenodd" d="M 3,1 5,1 5,3 4,3 4,2 3,2z" fill="#ffffff"/><path fill-rule="evenodd" d="M 6,1 8,1 8,2 7,2 7,3 6,3z" fill="#ffffff"/><path fill-rule="evenodd" d="M 1,2 2,2 2,5 1,5z" fill="#ffffff"/><path fill-rule="evenodd" d="M 9,2 10,2 10,5 9,5z" fill="#ffffff"/><path fill-rule="evenodd" d="M 5,3 6,3 6,4 5,4z" fill="#ffffff"/><path fill-rule="evenodd" d="M 4,4 5,4 5,5 4,5z" fill="#ffffff"/><path fill-rule="evenodd" d="M 6,4 7,4 7,5 6,5z" fill="#ffffff"/><path fill-rule="evenodd" d="M 3,5 4,5 4,6 3,6z" fill="#ffffff"/><path fill-rule="evenodd" d="M 7,5 8,5 8,6 7,6z" fill="#ffffff"/><path fill-rule="evenodd" d="M 1,6 2,6 2,7 1,7z" fill="#ffffff"/><path fill-rule="evenodd" d="M 9,6 10,6 10,7 9,7z" fill="#ffffff"/><path fill-rule="evenodd" d="M 1,8 3,8 3,9 1,9z" fill="#ffffff"/><path fill-rule="evenodd" d="M 5,8 6,8 6,9 5,9z" fill="#ffffff"/><path fill-rule="evenodd" d="M 8,8 10,8 10,9 8,9z" fill="#ffffff"/></svg>